<svg width="32" height="32" viewBox="0 0 32 32" fill="none" xmlns="http://www.w3.org/2000/svg">
<path d="M13.3293 11.8067C14.9633 10.7311 17.0367 10.7311 18.6707 11.8067L29.4079 18.8748C30.1974 19.3945 30.1974 20.6055 29.4079 21.1252L18.6707 28.1933C17.0367 29.2689 14.9633 29.2689 13.3293 28.1933L2.59209 21.1252C1.80264 20.6055 1.80264 19.3945 2.59209 18.8748L13.3293 11.8067Z" fill="#EDAF10"/>
<path d="M13.3293 7.80673C14.9633 6.73109 17.0367 6.73109 18.6707 7.80673L29.4079 14.8748C30.1974 15.3945 30.1974 16.6055 29.4079 17.1252L18.6707 24.1933C17.0367 25.2689 14.9633 25.2689 13.3293 24.1933L2.59209 17.1252C1.80264 16.6055 1.80264 15.3945 2.59209 14.8748L13.3293 7.80673Z" fill="#FFC93F"/>
<path d="M13.3293 3.76191C14.9633 2.74603 17.0367 2.74603 18.6707 3.76191L29.4079 10.4373C30.1974 10.9282 30.1974 12.0718 29.4079 12.5627L18.6707 19.2381C17.0367 20.254 14.9633 20.254 13.3293 19.2381L2.59209 12.5627C1.80264 12.0718 1.80264 10.9282 2.59209 10.4373L13.3293 3.76191Z" fill="white" fill-opacity="0.4"/>
</svg>
