<svg width="140" height="32" viewBox="0 0 140 32" fill="none" xmlns="http://www.w3.org/2000/svg">
<path d="M18.7998 13.3261L19.3301 13.8565C19.623 13.5636 19.623 13.0887 19.3301 12.7958L18.7998 13.3261ZM2.35156 24.1893C2.35156 18.604 6.87939 14.0761 12.4648 14.0761V12.5761C6.05096 12.5761 0.851562 17.7755 0.851562 24.1893H2.35156ZM12.4648 14.0761H18.8016V12.5761H12.4648V14.0761ZM14.8038 18.3828L19.3301 13.8565L18.2694 12.7958L13.7431 17.3221L14.8038 18.3828ZM19.3301 12.7958L14.8038 8.26947L13.7431 9.33013L18.2694 13.8565L19.3301 12.7958Z" fill="white"/>
<g filter="url(#filter0_b_61_647)">
<circle cx="124" cy="16" r="16" fill="white" fill-opacity="0.2"/>
</g>
<path d="M124.854 8.37022L125.092 8.60347L124.854 8.37022L117.786 15.5914C117.782 15.5952 117.778 15.5991 117.774 15.6032C117.727 15.6508 117.659 15.7204 117.61 15.7885C117.556 15.8623 117.426 16.0666 117.511 16.3301C117.595 16.5935 117.82 16.6839 117.907 16.7127C117.986 16.7393 118.082 16.7561 118.148 16.7675C118.154 16.7685 118.159 16.7695 118.164 16.7704L121.941 17.4364L120.957 23.0187C120.956 23.026 120.954 23.0334 120.953 23.0408C120.934 23.1508 120.911 23.2769 120.906 23.3792C120.904 23.4342 120.903 23.5287 120.934 23.6307C120.97 23.7497 121.054 23.8907 121.217 23.9748C121.381 24.059 121.545 24.0452 121.662 24.0051C121.763 23.9708 121.84 23.9151 121.883 23.8809C121.963 23.8174 122.053 23.7258 122.131 23.6459C122.136 23.6405 122.141 23.6351 122.147 23.6298L129.214 16.4087C129.218 16.4049 129.222 16.401 129.226 16.3969C129.273 16.3493 129.341 16.2797 129.39 16.2116C129.444 16.1378 129.574 15.9334 129.489 15.67C129.405 15.4065 129.18 15.3161 129.094 15.2874C129.014 15.2608 128.918 15.244 128.852 15.2325C128.846 15.2315 128.841 15.2306 128.836 15.2297L125.059 14.5637L126.043 8.98141C126.044 8.9741 126.046 8.9667 126.047 8.95923C126.067 8.84924 126.089 8.72314 126.094 8.62088C126.096 8.56583 126.097 8.47133 126.066 8.36932C126.03 8.25033 125.946 8.10938 125.783 8.02524L125.554 8.46998L125.783 8.02524C125.619 7.94111 125.455 7.95486 125.338 7.99493C125.237 8.02928 125.16 8.08501 125.117 8.11919C125.037 8.18268 124.947 8.27425 124.869 8.35412C124.864 8.35955 124.859 8.36492 124.854 8.37022ZM121.263 23.0964C121.259 23.0991 121.26 23.0985 121.263 23.0959L121.263 23.0964ZM125.737 8.90364C125.741 8.90094 125.74 8.90152 125.737 8.90419L125.737 8.90364Z" fill="white"/>
<path d="M124.854 8.37022L125.092 8.60347L124.854 8.37022L117.786 15.5914C117.782 15.5952 117.778 15.5991 117.774 15.6032C117.727 15.6508 117.659 15.7204 117.61 15.7885C117.556 15.8623 117.426 16.0666 117.511 16.3301C117.595 16.5935 117.82 16.6839 117.907 16.7127C117.986 16.7393 118.082 16.7561 118.148 16.7675C118.154 16.7685 118.159 16.7695 118.164 16.7704L121.941 17.4364L120.957 23.0187C120.956 23.026 120.954 23.0334 120.953 23.0408C120.934 23.1508 120.911 23.2769 120.906 23.3792C120.904 23.4342 120.903 23.5287 120.934 23.6307C120.97 23.7497 121.054 23.8907 121.217 23.9748C121.381 24.059 121.545 24.0452 121.662 24.0051C121.763 23.9708 121.84 23.9151 121.883 23.8809C121.963 23.8174 122.053 23.7258 122.131 23.6459C122.136 23.6405 122.141 23.6351 122.147 23.6298L129.214 16.4087C129.218 16.4049 129.222 16.401 129.226 16.3969C129.273 16.3493 129.341 16.2797 129.39 16.2116C129.444 16.1378 129.574 15.9334 129.489 15.67C129.405 15.4065 129.18 15.3161 129.094 15.2874C129.014 15.2608 128.918 15.244 128.852 15.2325C128.846 15.2315 128.841 15.2306 128.836 15.2297L125.059 14.5637L126.043 8.98141C126.044 8.9741 126.046 8.9667 126.047 8.95923C126.067 8.84924 126.089 8.72314 126.094 8.62088C126.096 8.56583 126.097 8.47133 126.066 8.36932C126.03 8.25033 125.946 8.10938 125.783 8.02524L125.554 8.46998L125.783 8.02524C125.619 7.94111 125.455 7.95486 125.338 7.99493C125.237 8.02928 125.16 8.08501 125.117 8.11919C125.037 8.18268 124.947 8.27425 124.869 8.35412C124.864 8.35955 124.859 8.36492 124.854 8.37022ZM121.263 23.0964C121.259 23.0991 121.26 23.0985 121.263 23.0959L121.263 23.0964ZM125.737 8.90364C125.741 8.90094 125.74 8.90152 125.737 8.90419L125.737 8.90364Z" fill="#FFE660"/>
<path d="M124.854 8.37022L125.092 8.60347L124.854 8.37022L117.786 15.5914C117.782 15.5952 117.778 15.5991 117.774 15.6032C117.727 15.6508 117.659 15.7204 117.61 15.7885C117.556 15.8623 117.426 16.0666 117.511 16.3301C117.595 16.5935 117.82 16.6839 117.907 16.7127C117.986 16.7393 118.082 16.7561 118.148 16.7675C118.154 16.7685 118.159 16.7695 118.164 16.7704L121.941 17.4364L120.957 23.0187C120.956 23.026 120.954 23.0334 120.953 23.0408C120.934 23.1508 120.911 23.2769 120.906 23.3792C120.904 23.4342 120.903 23.5287 120.934 23.6307C120.97 23.7497 121.054 23.8907 121.217 23.9748C121.381 24.059 121.545 24.0452 121.662 24.0051C121.763 23.9708 121.84 23.9151 121.883 23.8809C121.963 23.8174 122.053 23.7258 122.131 23.6459C122.136 23.6405 122.141 23.6351 122.147 23.6298L129.214 16.4087C129.218 16.4049 129.222 16.401 129.226 16.3969C129.273 16.3493 129.341 16.2797 129.39 16.2116C129.444 16.1378 129.574 15.9334 129.489 15.67C129.405 15.4065 129.18 15.3161 129.094 15.2874C129.014 15.2608 128.918 15.244 128.852 15.2325C128.846 15.2315 128.841 15.2306 128.836 15.2297L125.059 14.5637L126.043 8.98141C126.044 8.9741 126.046 8.9667 126.047 8.95923C126.067 8.84924 126.089 8.72314 126.094 8.62088C126.096 8.56583 126.097 8.47133 126.066 8.36932C126.03 8.25033 125.946 8.10938 125.783 8.02524L125.554 8.46998L125.783 8.02524C125.619 7.94111 125.455 7.95486 125.338 7.99493C125.237 8.02928 125.16 8.08501 125.117 8.11919C125.037 8.18268 124.947 8.27425 124.869 8.35412C124.864 8.35955 124.859 8.36492 124.854 8.37022ZM121.263 23.0964C121.259 23.0991 121.26 23.0985 121.263 23.0959L121.263 23.0964ZM125.737 8.90364C125.741 8.90094 125.74 8.90152 125.737 8.90419L125.737 8.90364Z" stroke="#FFE660"/>
<path d="M41 11L49 11" stroke="white" stroke-width="1.5" stroke-linecap="round" stroke-linejoin="round"/>
<path d="M41 15L49 15" stroke="white" stroke-width="1.5" stroke-linecap="round" stroke-linejoin="round"/>
<path d="M41 19L46 19" stroke="white" stroke-width="1.5" stroke-linecap="round" stroke-linejoin="round"/>
<path d="M49 19L55 19" stroke="white" stroke-width="1.5" stroke-linecap="round" stroke-linejoin="round"/>
<path d="M52 22L52 16" stroke="white" stroke-width="1.5" stroke-linecap="round" stroke-linejoin="round"/>
<defs>
<filter id="filter0_b_61_647" x="88" y="-20" width="72" height="72" filterUnits="userSpaceOnUse" color-interpolation-filters="sRGB">
<feFlood flood-opacity="0" result="BackgroundImageFix"/>
<feGaussianBlur in="BackgroundImageFix" stdDeviation="10"/>
<feComposite in2="SourceAlpha" operator="in" result="effect1_backgroundBlur_61_647"/>
<feBlend mode="normal" in="SourceGraphic" in2="effect1_backgroundBlur_61_647" result="shape"/>
</filter>
</defs>
</svg>
