<svg width="32" height="32" viewBox="0 0 32 32" fill="none" xmlns="http://www.w3.org/2000/svg">
<path d="M14.2876 7.11009C16.7192 5.26055 19.9223 2.26605 21.2199 1C25.2727 8.04586 15.5141 11.789 12.6879 15.0917C14.6432 14.6514 18.9696 13.7486 20.6334 13.6605C22.7131 13.5504 24.3662 14.4862 24.3662 16.2477C24.3662 18.0092 20.9 20.266 17.7005 23.1835C15.1409 25.5174 17.8071 29.3669 19.4602 31C10.2882 27.6972 13.0078 21.5137 15.5141 18.8348C9.06173 20.8715 6.50202 20.1009 6.07542 16.2477C5.64881 12.3945 11.248 9.42201 14.2876 7.11009Z" fill="#3C32BC"/>
<path d="M19.4593 30.9998C10.2873 27.697 13.0069 21.5135 15.5132 18.8346C17.3796 16.8397 23.2348 13.8365 20.6325 13.6603C22.7122 13.5502 24.3653 14.486 24.3653 16.2475C24.3653 18.009 20.8991 20.2658 17.6996 23.1833C15.14 25.5172 17.8062 29.3667 19.4593 30.9998Z" fill="#6054F0"/>
<path d="M14.2876 7.11009C16.7192 5.26055 19.9223 2.26605 21.2199 1C24.4002 5.13179 20.5801 9.25687 15.9941 12.3945C11.4081 15.5321 8.02319 19.0581 10.8215 19.8934C6.93937 20.2558 6.25825 17.8991 6.07542 16.2477C5.64881 12.3945 11.248 9.42201 14.2876 7.11009Z" fill="#6054F0"/>
</svg>
