<svg width="69" height="700" viewBox="0 0 69 700" fill="none" xmlns="http://www.w3.org/2000/svg">
<mask id="path-1-outside-1_57_1472" maskUnits="userSpaceOnUse" x="0" y="0" width="49" height="700" fill="black">
<rect fill="white" width="49" height="700"/>
<path d="M0 0H48V700H0V0Z"/>
</mask>
<path d="M0 0H48V700H0V0Z" fill="#141414"/>
<path d="M47 0V700H49V0H47Z" fill="white" fill-opacity="0.15" mask="url(#path-1-outside-1_57_1472)"/>
<path d="M23.7617 635.08C22.1573 635.08 20.8594 633.83 20.8594 632.26C20.8594 630.69 22.1573 629.43 23.7617 629.43C25.3662 629.43 26.6334 630.69 26.6334 632.26C26.6334 633.83 25.3662 635.08 23.7617 635.08Z" fill="white"/>
<path opacity="0.4" d="M32.9801 634.62C32.786 634.32 32.51 634.02 32.1523 633.83C31.8662 633.69 31.6822 633.46 31.5187 633.19C30.9975 632.33 31.3041 631.2 32.1728 630.69C33.1947 630.12 33.5218 628.85 32.929 627.86L32.2443 626.68C31.6618 625.69 30.3844 625.34 29.3726 625.92C28.4733 626.4 27.3185 626.08 26.7973 625.23C26.6338 624.95 26.5418 624.65 26.5622 624.35C26.5929 623.96 26.4703 623.59 26.2863 623.29C25.9082 622.67 25.2235 622.25 24.4672 622.25H23.0263C22.2802 622.27 21.5955 622.67 21.2174 623.29C21.0232 623.59 20.9108 623.96 20.9313 624.35C20.9517 624.65 20.8597 624.95 20.6962 625.23C20.175 626.08 19.0202 626.4 18.1311 625.92C17.1091 625.34 15.8419 625.69 15.2492 626.68L14.5645 627.86C13.9819 628.85 14.309 630.12 15.3207 630.69C16.1894 631.2 16.496 632.33 15.985 633.19C15.8112 633.46 15.6273 633.69 15.3411 633.83C14.9937 634.02 14.6871 634.32 14.5236 634.62C14.1455 635.24 14.1659 636.02 14.544 636.67L15.2492 637.87C15.6273 638.51 16.3324 638.91 17.0683 638.91C17.4157 638.91 17.8245 638.81 18.1515 638.61C18.407 638.44 18.7136 638.38 19.0509 638.38C20.0626 638.38 20.9108 639.21 20.9313 640.2C20.9313 641.35 21.8715 642.25 23.0569 642.25H24.4468C25.622 642.25 26.5622 641.35 26.5622 640.2C26.5929 639.21 27.4411 638.38 28.4529 638.38C28.7799 638.38 29.0865 638.44 29.3522 638.61C29.6792 638.81 30.0778 638.91 30.4355 638.91C31.161 638.91 31.8662 638.51 32.2443 637.87L32.9597 636.67C33.3276 636 33.3583 635.24 32.9801 634.62Z" fill="white"/>
<path opacity="0.4" d="M34 666.447C34 663.996 31.9698 662 29.4755 662H24.5144C22.0252 662 20 663.99 20 666.437V677.553C20 680.005 22.0302 682 24.5256 682H29.4846C31.9748 682 34 680.01 34 677.563V676.623V666.447Z" fill="white"/>
<path d="M14.2211 671.455L17.0669 668.546C17.361 668.246 17.8343 668.246 18.1275 668.548C18.4197 668.85 18.4187 669.337 18.1255 669.637L16.5663 671.23H18.0613H26.4516C26.8655 671.23 27.2015 671.575 27.2015 672C27.2015 672.426 26.8655 672.77 26.4516 672.77H16.5663L18.1255 674.363C18.4187 674.663 18.4197 675.15 18.1275 675.452C17.9804 675.603 17.7886 675.679 17.5957 675.679C17.4048 675.679 17.213 675.603 17.0669 675.454L14.2211 672.546C14.0799 672.401 14 672.205 14 672C14 671.796 14.0799 671.6 14.2211 671.455Z" fill="white"/>
<g opacity="0.3">
<path d="M57 345L60 350L57 355" stroke="white" stroke-width="1.5" stroke-linecap="round"/>
<path d="M61 345L64 350L61 355" stroke="white" stroke-width="1.5" stroke-linecap="round"/>
</g>
<g clip-path="url(#clip0_57_1472)">
<rect x="41" y="537" width="67" height="34" rx="12" transform="rotate(90 41 537)" fill="#0A0A0A"/>
<g filter="url(#filter0_b_57_1472)">
<path d="M24 541C34.7055 541 37 543.295 37 554C37 564.705 34.7055 567 24 567C13.2945 567 11 564.705 11 554C11 543.294 13.2945 541 24 541Z" fill="#353535"/>
</g>
<path opacity="0.4" d="M31.7736 555.542C31.5916 555.429 31.3566 555.45 31.199 555.594C30.0513 556.635 28.5667 557.209 27.0194 557.209C23.5852 557.209 20.7911 554.415 20.7911 550.98C20.7911 549.433 21.3648 547.948 22.4058 546.801C22.5493 546.642 22.5709 546.408 22.4581 546.226C22.3453 546.045 22.1245 545.96 21.9205 546.018C18.4343 547.005 16 550.228 16 553.855C16 558.346 19.6537 562 24.1448 562C27.7717 562 30.9945 559.566 31.9817 556.079C32.0402 555.873 31.9551 555.654 31.7736 555.542Z" fill="white"/>
<path d="M24.2654 552.021L25.4025 552.591L25.9706 553.734C26.0517 553.897 26.2181 554 26.4 554C26.582 554 26.7478 553.897 26.8294 553.734L27.3981 552.591L28.5347 552.021C28.6974 551.939 28.8 551.772 28.8 551.589C28.8 551.407 28.6974 551.24 28.5347 551.158L27.3981 550.587L26.8294 549.445C26.6662 549.118 26.1329 549.118 25.9706 549.445L25.4025 550.587L24.2654 551.158C24.1027 551.239 24 551.407 24 551.589C24 551.772 24.1027 551.939 24.2654 552.021Z" fill="white"/>
<path d="M29.1999 548.4H29.5999V548.8C29.5999 549.021 29.7789 549.2 29.9999 549.2C30.221 549.2 30.4 549.021 30.4 548.8V548.4H30.8C31.021 548.4 31.2 548.221 31.2 548C31.2 547.779 31.021 547.6 30.8 547.6H30.4V547.2C30.4 546.979 30.221 546.8 29.9999 546.8C29.7789 546.8 29.5999 546.979 29.5999 547.2V547.6H29.1999C28.9788 547.6 28.8 547.779 28.8 548C28.8 548.221 28.9788 548.4 29.1999 548.4Z" fill="white"/>
<path d="M28.0078 585C28.0078 582.79 26.2098 580.993 24 580.993C21.7903 580.993 19.9922 582.79 19.9922 585C19.9922 587.21 21.7899 589.008 24 589.008C26.2101 589.008 28.0078 587.21 28.0078 585Z" fill="white"/>
<path opacity="0.4" d="M29.1855 585C29.1855 584.568 29.5355 584.218 29.9671 584.218L31.2181 584.218C31.65 584.218 32 584.568 32 585C32 585.432 31.65 585.782 31.2181 585.782L29.9671 585.782C29.5355 585.782 29.1855 585.431 29.1855 585Z" fill="white"/>
<path opacity="0.4" d="M18.8152 585C18.8152 584.568 18.4652 584.218 18.0333 584.218L16.7827 584.218C16.3504 584.218 16.0004 584.568 16.0004 585C16.0004 585.432 16.3504 585.782 16.7827 585.782L18.0333 585.782C18.4652 585.782 18.8152 585.432 18.8152 585Z" fill="white"/>
<path opacity="0.4" d="M27.6667 588.666C27.9721 588.361 28.4671 588.361 28.7725 588.666L29.6571 589.551C29.9622 589.856 29.9622 590.351 29.6571 590.657C29.3517 590.962 28.8564 590.962 28.5514 590.657L27.6667 589.772C27.3613 589.467 27.3613 588.972 27.6667 588.666Z" fill="white"/>
<path opacity="0.4" d="M20.3332 581.333C20.6389 581.028 20.6389 580.533 20.3332 580.228L19.4489 579.343C19.1438 579.038 18.6482 579.038 18.3431 579.343C18.0381 579.648 18.0381 580.144 18.3431 580.449L19.2281 581.333C19.5332 581.639 20.0285 581.639 20.3332 581.333Z" fill="white"/>
<path opacity="0.4" d="M24.0001 590.185C24.432 590.185 24.782 590.535 24.782 590.967L24.782 592.218C24.782 592.65 24.432 593 24.0001 593C23.5682 593 23.2185 592.65 23.2185 592.218L23.2185 590.967C23.2185 590.535 23.5682 590.185 24.0001 590.185Z" fill="white"/>
<path opacity="0.4" d="M24.0001 579.815C24.432 579.815 24.782 579.464 24.782 579.033L24.782 577.782C24.782 577.35 24.432 577 24.0001 577C23.5682 577 23.2185 577.35 23.2185 577.782L23.2185 579.033C23.2185 579.464 23.5682 579.815 24.0001 579.815Z" fill="white"/>
<path opacity="0.4" d="M20.3329 588.666C20.638 588.971 20.638 589.467 20.3329 589.772L19.4482 590.656C19.1435 590.962 18.6479 590.962 18.3428 590.656C18.0378 590.351 18.0378 589.856 18.3428 589.551L19.2275 588.666C19.5329 588.361 20.0279 588.361 20.3329 588.666Z" fill="white"/>
<path opacity="0.4" d="M27.6668 581.333C27.9722 581.639 28.4671 581.639 28.7726 581.333L29.6569 580.449C29.9623 580.143 29.9623 579.648 29.6569 579.343C29.3518 579.038 28.8565 579.038 28.5515 579.343L27.6668 580.228C27.361 580.533 27.361 581.028 27.6668 581.333Z" fill="white"/>
</g>
<path d="M29.2817 20.0293C30.6056 20.0293 31.77 20.3221 32.7746 20.9078C33.7887 21.4838 34.5775 22.3233 35.1408 23.4264C35.7136 24.5294 36 25.8765 36 27.4677V29.6348H25.8169C25.8638 30.8941 26.2254 31.8849 26.9014 32.6072C27.5869 33.3198 28.5352 33.6761 29.7465 33.6761C30.6948 33.6761 31.6056 33.5688 32.4789 33.354C33.3521 33.1392 34.2254 32.8171 35.0986 32.3876V35.8432C34.3099 36.2435 33.4883 36.5363 32.6338 36.7218C31.7887 36.9073 30.7465 37 29.507 37C28.6526 37 27.8451 36.8926 27.0845 36.6779C26.3239 36.4533 25.6291 36.1214 25 35.6822C24.3803 35.2331 23.8451 34.667 23.3944 33.9836C22.831 34.6767 22.2676 35.2478 21.7042 35.6968C21.1408 36.1459 20.4883 36.4777 19.7465 36.6925C19.0141 36.8975 18.1033 37 17.0141 37C16.1127 37 15.2817 36.8145 14.5211 36.4436C13.7606 36.0726 13.1502 35.5065 12.6901 34.745C12.23 33.9739 12 32.9977 12 31.8165C12 30.6549 12.2535 29.7031 12.7606 28.9612C13.2676 28.2096 14.0235 27.6434 15.0282 27.2627C16.0423 26.882 17.3005 26.6624 18.8028 26.6038L21.493 26.5159V25.286C21.493 24.6124 21.2817 24.1146 20.8592 23.7924C20.446 23.4703 19.8779 23.3092 19.1549 23.3092C18.4038 23.3092 17.6761 23.4117 16.9718 23.6167C16.2676 23.8217 15.5634 24.095 14.8592 24.4367L13.4648 21.4789C14.2911 21.0201 15.216 20.6589 16.2394 20.3953C17.2629 20.1318 18.3192 20 19.4085 20C20.4695 20 21.3991 20.1611 22.1972 20.4832C23.0047 20.7956 23.6808 21.2739 24.2254 21.9182C24.8451 21.2837 25.5587 20.8102 26.3662 20.4978C27.1831 20.1855 28.1549 20.0293 29.2817 20.0293ZM21.493 29.1223L19.9014 29.1809C18.5962 29.2199 17.6854 29.4786 17.169 29.9569C16.662 30.4353 16.4085 31.0649 16.4085 31.8458C16.4085 32.5291 16.5869 33.0172 16.9437 33.3101C17.3099 33.5932 17.7887 33.7347 18.3803 33.7347C18.9718 33.7347 19.5023 33.6078 19.9718 33.354C20.4413 33.1002 20.8122 32.7293 21.0845 32.2412C21.3568 31.7531 21.493 31.1625 21.493 30.4694V29.1223ZM29.1972 23.2067C28.2394 23.2067 27.4695 23.4849 26.8873 24.0413C26.3146 24.5978 25.9859 25.4714 25.9014 26.6624H31.9577C31.9484 25.9986 31.8357 25.408 31.6197 24.8906C31.4131 24.3732 31.108 23.9632 30.7042 23.6606C30.3005 23.358 29.7981 23.2067 29.1972 23.2067Z" fill="white"/>
<g filter="url(#filter1_b_57_1472)">
<path d="M8 409C8 395.824 10.824 393 24 393C37.176 393 40 395.824 40 409C40 422.176 37.176 425 24 425C10.824 425 8 422.176 8 409Z" fill="white" fill-opacity="0.1"/>
</g>
<path d="M22.5949 403.073C24.216 401.84 26.3514 399.844 27.2164 399C29.9183 403.697 23.4126 406.193 21.5284 408.394C22.8319 408.101 25.7162 407.499 26.8254 407.44C28.2119 407.367 29.314 407.991 29.314 409.165C29.314 410.339 27.0032 411.844 24.8701 413.789C23.1637 415.345 24.9412 417.911 26.0433 419C19.9286 416.798 21.7417 412.676 23.4126 410.89C19.111 412.248 17.4045 411.734 17.1201 409.165C16.8357 406.596 20.5685 404.615 22.5949 403.073Z" fill="#3C32BC"/>
<path d="M26.0427 419C19.928 416.798 21.7411 412.676 23.412 410.89C24.6562 409.56 28.5597 407.558 26.8248 407.44C28.2113 407.367 29.3134 407.991 29.3134 409.165C29.3134 410.339 27.0026 411.844 24.8695 413.789C23.1631 415.345 24.9406 417.911 26.0427 419Z" fill="#6054F0"/>
<path d="M22.5949 403.073C24.216 401.84 26.3514 399.844 27.2164 399C29.3366 401.755 26.7899 404.505 23.7325 406.596C20.6752 408.688 18.4186 411.039 20.2841 411.596C17.6961 411.837 17.242 410.266 17.1201 409.165C16.8357 406.596 20.5685 404.615 22.5949 403.073Z" fill="#6054F0"/>
<g filter="url(#filter2_b_57_1472)">
<path d="M8 449C8 435.824 10.824 433 24 433C37.176 433 40 435.824 40 449C40 462.176 37.176 465 24 465C10.824 465 8 462.176 8 449Z" fill="white" fill-opacity="0.1"/>
</g>
<g clip-path="url(#clip1_57_1472)">
<ellipse rx="4.74139" ry="8.87283" transform="matrix(-0.519405 0.854528 -0.876807 -0.480843 23.7988 446.318)" fill="#B882E1"/>
<ellipse rx="4.74139" ry="8.87283" transform="matrix(0.519405 0.854528 -0.876807 0.480843 23.7985 451.807)" fill="white" fill-opacity="0.3"/>
<path fill-rule="evenodd" clip-rule="evenodd" d="M19.3185 449.061C19.9294 449.527 20.6047 449.967 21.3354 450.368C25.632 452.724 30.2177 452.82 31.5778 450.583C31.6123 450.526 31.6444 450.468 31.674 450.41C31.849 449.944 31.9463 449.489 31.9589 449.057C31.9454 448.629 31.8486 448.178 31.6757 447.716C31.6455 447.657 31.6128 447.598 31.5776 447.54C30.2175 445.302 25.6318 445.398 21.3351 447.754C20.6045 448.155 19.9293 448.595 19.3185 449.061Z" fill="#DCAFFF"/>
</g>
<g filter="url(#filter3_b_57_1472)">
<path d="M8 489C8 475.824 10.824 473 24 473C37.176 473 40 475.824 40 489C40 502.176 37.176 505 24 505C10.824 505 8 502.176 8 489Z" fill="white" fill-opacity="0.1"/>
</g>
<path d="M22.2311 485.683C23.3133 484.975 24.6866 484.975 25.7689 485.683L32.8805 490.335C33.4034 490.677 33.4034 491.474 32.8805 491.816L25.7689 496.469C24.6866 497.177 23.3133 497.177 22.2311 496.469L15.1194 491.816C14.5965 491.474 14.5965 490.677 15.1194 490.335L22.2311 485.683Z" fill="#EDAF10"/>
<path d="M22.2311 483.599C23.3133 482.921 24.6866 482.921 25.7689 483.599L32.8805 488.049C33.4034 488.376 33.4034 489.138 32.8805 489.466L25.7689 493.916C24.6866 494.593 23.3133 494.593 22.2311 493.916L15.1194 489.466C14.5965 489.138 14.5965 488.376 15.1194 488.049L22.2311 483.599Z" fill="#FFC93F"/>
<path d="M22.2311 480.531C23.3133 479.823 24.6866 479.823 25.7689 480.531L32.8805 485.184C33.4034 485.526 33.4034 486.323 32.8805 486.665L25.7689 491.317C24.6866 492.026 23.3133 492.026 22.2311 491.317L15.1194 486.665C14.5965 486.323 14.5965 485.526 15.1194 485.184L22.2311 480.531Z" fill="white" fill-opacity="0.4"/>
<g filter="url(#filter4_b_57_1472)">
<path d="M8 369C8 355.824 10.824 353 24 353C37.176 353 40 355.824 40 369C40 382.176 37.176 385 24 385C10.824 385 8 382.176 8 369Z" fill="white" fill-opacity="0.05"/>
</g>
<g opacity="0.3">
<path d="M24 364V373.98" stroke="white" stroke-width="1.5" stroke-linecap="round" stroke-linejoin="round"/>
<path d="M28.9951 368.99H19.0051" stroke="white" stroke-width="1.5" stroke-linecap="round" stroke-linejoin="round"/>
</g>
<path d="M0 521H48" stroke="white" stroke-opacity="0.05" stroke-width="1.5"/>
<defs>
<filter id="filter0_b_57_1472" x="-9" y="521" width="66" height="66" filterUnits="userSpaceOnUse" color-interpolation-filters="sRGB">
<feFlood flood-opacity="0" result="BackgroundImageFix"/>
<feGaussianBlur in="BackgroundImageFix" stdDeviation="10"/>
<feComposite in2="SourceAlpha" operator="in" result="effect1_backgroundBlur_57_1472"/>
<feBlend mode="normal" in="SourceGraphic" in2="effect1_backgroundBlur_57_1472" result="shape"/>
</filter>
<filter id="filter1_b_57_1472" x="-12" y="373" width="72" height="72" filterUnits="userSpaceOnUse" color-interpolation-filters="sRGB">
<feFlood flood-opacity="0" result="BackgroundImageFix"/>
<feGaussianBlur in="BackgroundImageFix" stdDeviation="10"/>
<feComposite in2="SourceAlpha" operator="in" result="effect1_backgroundBlur_57_1472"/>
<feBlend mode="normal" in="SourceGraphic" in2="effect1_backgroundBlur_57_1472" result="shape"/>
</filter>
<filter id="filter2_b_57_1472" x="-12" y="413" width="72" height="72" filterUnits="userSpaceOnUse" color-interpolation-filters="sRGB">
<feFlood flood-opacity="0" result="BackgroundImageFix"/>
<feGaussianBlur in="BackgroundImageFix" stdDeviation="10"/>
<feComposite in2="SourceAlpha" operator="in" result="effect1_backgroundBlur_57_1472"/>
<feBlend mode="normal" in="SourceGraphic" in2="effect1_backgroundBlur_57_1472" result="shape"/>
</filter>
<filter id="filter3_b_57_1472" x="-12" y="453" width="72" height="72" filterUnits="userSpaceOnUse" color-interpolation-filters="sRGB">
<feFlood flood-opacity="0" result="BackgroundImageFix"/>
<feGaussianBlur in="BackgroundImageFix" stdDeviation="10"/>
<feComposite in2="SourceAlpha" operator="in" result="effect1_backgroundBlur_57_1472"/>
<feBlend mode="normal" in="SourceGraphic" in2="effect1_backgroundBlur_57_1472" result="shape"/>
</filter>
<filter id="filter4_b_57_1472" x="-12" y="333" width="72" height="72" filterUnits="userSpaceOnUse" color-interpolation-filters="sRGB">
<feFlood flood-opacity="0" result="BackgroundImageFix"/>
<feGaussianBlur in="BackgroundImageFix" stdDeviation="10"/>
<feComposite in2="SourceAlpha" operator="in" result="effect1_backgroundBlur_57_1472"/>
<feBlend mode="normal" in="SourceGraphic" in2="effect1_backgroundBlur_57_1472" result="shape"/>
</filter>
<clipPath id="clip0_57_1472">
<rect x="41" y="537" width="67" height="34" rx="12" transform="rotate(90 41 537)" fill="white"/>
</clipPath>
<clipPath id="clip1_57_1472">
<rect width="20" height="20" fill="white" transform="translate(14 439)"/>
</clipPath>
</defs>
</svg>
