<svg width="24" height="24" viewBox="0 0 24 24" fill="none" xmlns="http://www.w3.org/2000/svg">
<path opacity="0.4" d="M22 6.447C22 3.996 19.9698 2 17.4755 2H12.5144C10.0252 2 8 3.99 8 6.437V17.553C8 20.005 10.0302 22 12.5256 22H17.4846C19.9748 22 22 20.01 22 17.563V16.623V6.447Z" fill="white"/>
<path d="M2.22109 11.4548L5.06688 8.5458C5.361 8.2458 5.83433 8.2458 6.12748 8.5478C6.41965 8.8498 6.41868 9.3368 6.12553 9.6368L4.56629 11.2298H6.06125H14.4516C14.8655 11.2298 15.2015 11.5748 15.2015 11.9998C15.2015 12.4258 14.8655 12.7698 14.4516 12.7698H4.56629L6.12553 14.3628C6.41868 14.6628 6.41965 15.1498 6.12748 15.4518C5.98042 15.6028 5.78856 15.6788 5.59572 15.6788C5.40483 15.6788 5.21297 15.6028 5.06688 15.4538L2.22109 12.5458C2.07987 12.4008 2.00001 12.2048 2.00001 11.9998C2.00001 11.7958 2.07987 11.5998 2.22109 11.4548Z" fill="white"/>
</svg>
