<svg width="20" height="20" viewBox="0 0 20 20" fill="none" xmlns="http://www.w3.org/2000/svg">
<path d="M7.12088 13.5C7.12088 13.7761 6.89702 14 6.62088 14H5.45162C5.28328 14 5.12624 13.9153 5.03378 13.7746L1.93896 9.06553V13.5C1.93896 13.7761 1.71511 14 1.43896 14H0.5C0.223858 14 0 13.7761 0 13.5V6.5C0 6.22386 0.223858 6 0.5 6H1.66857C1.83729 6 1.99463 6.08509 2.08699 6.22628L5.18191 10.9573V6.5C5.18191 6.22386 5.40577 6 5.68191 6H6.62088C6.89702 6 7.12088 6.22386 7.12088 6.5V13.5Z" fill="white"/>
<path d="M12.9815 6C13.2577 6 13.4815 6.22386 13.4815 6.5V7.06125C13.4815 7.3374 13.2577 7.56125 12.9815 7.56125H10.2386V9.24786H12.1651C12.4412 9.24786 12.6651 9.47172 12.6651 9.74786V10.2635C12.6651 10.5397 12.4412 10.7635 12.1651 10.7635H10.2386V13.5C10.2386 13.7761 10.0147 14 9.73856 14H8.7996C8.52345 14 8.2996 13.7761 8.2996 13.5V6.5C8.2996 6.22386 8.52345 6 8.7996 6H12.9815Z" fill="white"/>
<path d="M19.5 6C19.7761 6 20 6.22386 20 6.5V7.06125C20 7.3374 19.7761 7.56125 19.5 7.56125H17.891V13.5C17.891 13.7761 17.6671 14 17.391 14H16.452C16.1758 14 15.952 13.7761 15.952 13.5V7.56125H14.3429C14.0668 7.56125 13.8429 7.3374 13.8429 7.06125V6.5C13.8429 6.22386 14.0668 6 14.3429 6H19.5Z" fill="white"/>
</svg>
