<svg width="147" height="32" viewBox="0 0 147 32" fill="none" xmlns="http://www.w3.org/2000/svg">
<g filter="url(#filter0_b_56_109)">
<circle cx="131" cy="16" r="16" fill="white" fill-opacity="0.2"/>
</g>
<path d="M131.854 8.37022L132.092 8.60347L131.854 8.37022L124.786 15.5914C124.782 15.5952 124.778 15.5991 124.774 15.6032C124.727 15.6508 124.659 15.7204 124.61 15.7885C124.556 15.8623 124.426 16.0666 124.511 16.3301C124.595 16.5935 124.82 16.6839 124.907 16.7127C124.986 16.7393 125.082 16.7561 125.148 16.7675C125.154 16.7685 125.159 16.7695 125.164 16.7704L128.941 17.4364L127.957 23.0187C127.956 23.026 127.954 23.0334 127.953 23.0408C127.934 23.1508 127.911 23.2769 127.906 23.3792C127.904 23.4342 127.903 23.5287 127.934 23.6307C127.97 23.7497 128.054 23.8907 128.217 23.9748C128.381 24.059 128.545 24.0452 128.662 24.0051C128.763 23.9708 128.84 23.9151 128.883 23.8809C128.963 23.8174 129.053 23.7258 129.131 23.6459C129.136 23.6405 129.141 23.6351 129.147 23.6298L136.214 16.4087C136.218 16.4049 136.222 16.401 136.226 16.3969C136.273 16.3493 136.341 16.2797 136.39 16.2116C136.444 16.1378 136.574 15.9334 136.489 15.67C136.405 15.4065 136.18 15.3161 136.094 15.2874C136.014 15.2608 135.918 15.244 135.852 15.2325C135.846 15.2315 135.841 15.2306 135.836 15.2297L132.059 14.5637L133.043 8.98141C133.044 8.9741 133.046 8.9667 133.047 8.95923C133.067 8.84924 133.089 8.72314 133.094 8.62088C133.096 8.56583 133.097 8.47133 133.066 8.36932C133.03 8.25033 132.946 8.10938 132.783 8.02524L132.554 8.46998L132.783 8.02524C132.619 7.94111 132.455 7.95486 132.338 7.99493C132.237 8.02928 132.16 8.08501 132.117 8.11919C132.037 8.18268 131.947 8.27425 131.869 8.35412C131.864 8.35955 131.859 8.36492 131.854 8.37022ZM128.263 23.0964C128.259 23.0991 128.26 23.0985 128.263 23.0959L128.263 23.0964ZM132.737 8.90364C132.741 8.90094 132.74 8.90152 132.737 8.90419L132.737 8.90364Z" fill="white"/>
<path d="M131.854 8.37022L132.092 8.60347L131.854 8.37022L124.786 15.5914C124.782 15.5952 124.778 15.5991 124.774 15.6032C124.727 15.6508 124.659 15.7204 124.61 15.7885C124.556 15.8623 124.426 16.0666 124.511 16.3301C124.595 16.5935 124.82 16.6839 124.907 16.7127C124.986 16.7393 125.082 16.7561 125.148 16.7675C125.154 16.7685 125.159 16.7695 125.164 16.7704L128.941 17.4364L127.957 23.0187C127.956 23.026 127.954 23.0334 127.953 23.0408C127.934 23.1508 127.911 23.2769 127.906 23.3792C127.904 23.4342 127.903 23.5287 127.934 23.6307C127.97 23.7497 128.054 23.8907 128.217 23.9748C128.381 24.059 128.545 24.0452 128.662 24.0051C128.763 23.9708 128.84 23.9151 128.883 23.8809C128.963 23.8174 129.053 23.7258 129.131 23.6459C129.136 23.6405 129.141 23.6351 129.147 23.6298L136.214 16.4087C136.218 16.4049 136.222 16.401 136.226 16.3969C136.273 16.3493 136.341 16.2797 136.39 16.2116C136.444 16.1378 136.574 15.9334 136.489 15.67C136.405 15.4065 136.18 15.3161 136.094 15.2874C136.014 15.2608 135.918 15.244 135.852 15.2325C135.846 15.2315 135.841 15.2306 135.836 15.2297L132.059 14.5637L133.043 8.98141C133.044 8.9741 133.046 8.9667 133.047 8.95923C133.067 8.84924 133.089 8.72314 133.094 8.62088C133.096 8.56583 133.097 8.47133 133.066 8.36932C133.03 8.25033 132.946 8.10938 132.783 8.02524L132.554 8.46998L132.783 8.02524C132.619 7.94111 132.455 7.95486 132.338 7.99493C132.237 8.02928 132.16 8.08501 132.117 8.11919C132.037 8.18268 131.947 8.27425 131.869 8.35412C131.864 8.35955 131.859 8.36492 131.854 8.37022ZM128.263 23.0964C128.259 23.0991 128.26 23.0985 128.263 23.0959L128.263 23.0964ZM132.737 8.90364C132.741 8.90094 132.74 8.90152 132.737 8.90419L132.737 8.90364Z" fill="#FFE660"/>
<path d="M131.854 8.37022L132.092 8.60347L131.854 8.37022L124.786 15.5914C124.782 15.5952 124.778 15.5991 124.774 15.6032C124.727 15.6508 124.659 15.7204 124.61 15.7885C124.556 15.8623 124.426 16.0666 124.511 16.3301C124.595 16.5935 124.82 16.6839 124.907 16.7127C124.986 16.7393 125.082 16.7561 125.148 16.7675C125.154 16.7685 125.159 16.7695 125.164 16.7704L128.941 17.4364L127.957 23.0187C127.956 23.026 127.954 23.0334 127.953 23.0408C127.934 23.1508 127.911 23.2769 127.906 23.3792C127.904 23.4342 127.903 23.5287 127.934 23.6307C127.97 23.7497 128.054 23.8907 128.217 23.9748C128.381 24.059 128.545 24.0452 128.662 24.0051C128.763 23.9708 128.84 23.9151 128.883 23.8809C128.963 23.8174 129.053 23.7258 129.131 23.6459C129.136 23.6405 129.141 23.6351 129.147 23.6298L136.214 16.4087C136.218 16.4049 136.222 16.401 136.226 16.3969C136.273 16.3493 136.341 16.2797 136.39 16.2116C136.444 16.1378 136.574 15.9334 136.489 15.67C136.405 15.4065 136.18 15.3161 136.094 15.2874C136.014 15.2608 135.918 15.244 135.852 15.2325C135.846 15.2315 135.841 15.2306 135.836 15.2297L132.059 14.5637L133.043 8.98141C133.044 8.9741 133.046 8.9667 133.047 8.95923C133.067 8.84924 133.089 8.72314 133.094 8.62088C133.096 8.56583 133.097 8.47133 133.066 8.36932C133.03 8.25033 132.946 8.10938 132.783 8.02524L132.554 8.46998L132.783 8.02524C132.619 7.94111 132.455 7.95486 132.338 7.99493C132.237 8.02928 132.16 8.08501 132.117 8.11919C132.037 8.18268 131.947 8.27425 131.869 8.35412C131.864 8.35955 131.859 8.36492 131.854 8.37022ZM128.263 23.0964C128.259 23.0991 128.26 23.0985 128.263 23.0959L128.263 23.0964ZM132.737 8.90364C132.741 8.90094 132.74 8.90152 132.737 8.90419L132.737 8.90364Z" stroke="#FFE660"/>
<g clip-path="url(#clip0_56_109)">
<path d="M79.75 11C79.75 9.75736 80.7574 8.75 82 8.75H90C91.2426 8.75 92.25 9.75736 92.25 11V22.1964C92.25 23.3078 90.9081 23.8665 90.1193 23.0835L87.2329 20.2181C86.5505 19.5407 85.4495 19.5407 84.7671 20.2181L81.8806 23.0835C81.0919 23.8665 79.75 23.3078 79.75 22.1964V11Z" stroke="white" stroke-width="1.5"/>
</g>
<path d="M56.7998 13.3261L57.3301 13.8565C57.623 13.5636 57.623 13.0887 57.3301 12.7958L56.7998 13.3261ZM40.3516 24.1893C40.3516 18.604 44.8794 14.0761 50.4648 14.0761V12.5761C44.051 12.5761 38.8516 17.7755 38.8516 24.1893H40.3516ZM50.4648 14.0761H56.8016V12.5761H50.4648V14.0761ZM52.8038 18.3828L57.3301 13.8565L56.2694 12.7958L51.7431 17.3221L52.8038 18.3828ZM57.3301 12.7958L52.8038 8.26947L51.7431 9.33013L56.2694 13.8565L57.3301 12.7958Z" fill="white"/>
<path fill-rule="evenodd" clip-rule="evenodd" d="M15.6568 21.6559C13.2128 24.1011 9.59168 24.6294 6.62905 23.2592C6.19169 23.0831 3.36091 23.8671 2.74667 23.2536C2.13244 22.6393 2.91712 19.8081 2.74105 19.3707C1.37028 16.4085 1.89929 12.7861 4.34416 10.3417C7.46518 7.21944 12.5358 7.21944 15.6568 10.3417C18.7843 13.4687 18.7778 18.5344 15.6568 21.6559Z" stroke="white" stroke-width="1.5" stroke-linecap="round" stroke-linejoin="round"/>
<defs>
<filter id="filter0_b_56_109" x="95" y="-20" width="72" height="72" filterUnits="userSpaceOnUse" color-interpolation-filters="sRGB">
<feFlood flood-opacity="0" result="BackgroundImageFix"/>
<feGaussianBlur in="BackgroundImageFix" stdDeviation="10"/>
<feComposite in2="SourceAlpha" operator="in" result="effect1_backgroundBlur_56_109"/>
<feBlend mode="normal" in="SourceGraphic" in2="effect1_backgroundBlur_56_109" result="shape"/>
</filter>
<clipPath id="clip0_56_109">
<rect width="20" height="20" fill="white" transform="translate(76 6)"/>
</clipPath>
</defs>
</svg>
