<svg width="24" height="24" viewBox="0 0 24 24" fill="none" xmlns="http://www.w3.org/2000/svg">
<path opacity="0.4" d="M21.507 3.81264C21.194 3.4999 20.778 3.32494 20.3357 3.31994C20.3293 3.31986 20.3228 3.31982 20.3164 3.31982C19.8811 3.31982 19.4688 3.48502 19.1534 3.78643L12.2198 10.3801C11.4279 11.1332 11.4214 12.3939 12.2055 13.1551C12.9736 13.9006 14.2025 13.8761 14.9401 13.1004L21.5337 6.1665C21.8345 5.85178 22.0001 5.43877 22.0001 5.00357C22.0001 4.55408 21.8252 4.13131 21.507 3.81264Z" fill="white"/>
<path d="M8.89797 13.8101C8.85074 13.8081 8.80352 13.8071 8.75633 13.8071C7.96441 13.8071 7.17895 14.0825 6.5382 14.5435C5.76586 15.0992 5.45789 15.8972 4.89078 16.6244C4.17969 17.536 3.08574 17.9818 2 18.2858C2.6323 19.957 4.98125 20.6412 6.52156 20.678C6.57687 20.6794 6.63246 20.68 6.68848 20.68C8.43246 20.68 10.4866 20.0318 11.3273 18.3159C12.2503 16.4321 11.1127 13.9028 8.89797 13.8101Z" fill="white"/>
</svg>
