<svg width="16" height="16" viewBox="0 0 16 16" fill="none" xmlns="http://www.w3.org/2000/svg">
<path d="M7.96775 9.61621C5.77233 9.61621 3.91992 9.97496 3.91992 11.3595C3.91992 12.7446 5.78429 13.0908 7.96775 13.0908C10.1632 13.0908 12.0156 12.732 12.0156 11.3475C12.0156 9.96235 10.1512 9.61621 7.96775 9.61621Z" fill="white"/>
<path opacity="0.4" d="M7.96767 8.29722C9.45426 8.29722 10.6463 7.09835 10.6463 5.6032C10.6463 4.10748 9.45426 2.90918 7.96767 2.90918C6.48107 2.90918 5.28906 4.10748 5.28906 5.6032C5.28906 7.09835 6.48107 8.29722 7.96767 8.29722Z" fill="white"/>
<path opacity="0.4" d="M13.7835 6.23032C14.1681 4.7174 13.0405 3.35864 11.6046 3.35864C11.4485 3.35864 11.2992 3.37583 11.1533 3.40506C11.134 3.40965 11.1123 3.41939 11.1009 3.43658C11.0878 3.45836 11.0975 3.48758 11.1117 3.5065C11.5431 4.1151 11.7909 4.85609 11.7909 5.65151C11.7909 6.4137 11.5636 7.12431 11.1647 7.71401C11.1237 7.77475 11.1602 7.8567 11.2325 7.86931C11.3328 7.88708 11.4354 7.89625 11.5402 7.89911C12.5858 7.92662 13.5242 7.24982 13.7835 6.23032Z" fill="white"/>
<path d="M14.8788 9.79251C14.6874 9.38219 14.2253 9.10081 13.5227 8.9627C13.1911 8.88132 12.2936 8.76671 11.4589 8.78218C11.4464 8.7839 11.4395 8.79249 11.4384 8.79822C11.4367 8.80625 11.4401 8.82 11.4566 8.8286C11.8424 9.02058 13.3335 9.85555 13.1461 11.6166C13.1381 11.6928 13.1991 11.7587 13.2748 11.7473C13.6418 11.6945 14.5859 11.4905 14.8788 10.855C15.0406 10.5192 15.0406 10.1289 14.8788 9.79251Z" fill="white"/>
<path opacity="0.4" d="M4.84672 3.40531C4.70143 3.37551 4.55157 3.35889 4.39545 3.35889C2.95956 3.35889 1.83194 4.71765 2.21712 6.23056C2.47581 7.25006 3.41426 7.92686 4.45983 7.89935C4.56467 7.89649 4.66781 7.88675 4.76752 7.86955C4.83989 7.85695 4.87635 7.775 4.83533 7.71425C4.43647 7.12399 4.20912 6.41395 4.20912 5.65176C4.20912 4.85576 4.45755 4.11477 4.88889 3.50674C4.90256 3.48783 4.91282 3.4586 4.89914 3.43682C4.88775 3.41906 4.86667 3.40989 4.84672 3.40531Z" fill="white"/>
<path d="M2.47758 8.96247C1.77502 9.10058 1.31349 9.38196 1.12204 9.79228C0.959646 10.1287 0.959646 10.5189 1.12204 10.8553C1.41491 11.4903 2.35906 11.6949 2.72601 11.747C2.80179 11.7585 2.86219 11.6932 2.85421 11.6164C2.66675 9.85589 4.15791 9.02092 4.54423 8.82894C4.56018 8.81977 4.5636 8.80659 4.56189 8.798C4.56075 8.79227 4.55448 8.78367 4.54195 8.78252C3.70663 8.76648 2.80977 8.88109 2.47758 8.96247Z" fill="white"/>
</svg>
