<svg width="24" height="24" viewBox="0 0 24 24" fill="none" xmlns="http://www.w3.org/2000/svg">
<path opacity="0.2" d="M9.05204 9.0523C12.4257 9.0523 14.9465 7.71863 14.9465 6.52612C14.9465 5.33372 12.4257 4 9.05204 4C5.67844 4 3.15759 5.33372 3.15759 6.52612C3.15759 7.71863 5.67838 9.0523 9.05204 9.0523Z" fill="white"/>
<path opacity="0.2" d="M9.05204 19.1572C9.54445 19.1572 10.0184 19.1286 10.4692 19.0764C10.0892 18.588 9.77494 18.0461 9.53951 17.4641C9.37775 17.4695 9.21543 17.4733 9.05199 17.4733C7.12428 17.4733 5.29871 17.0913 3.91171 16.3978C3.63861 16.2612 3.38729 16.1145 3.15759 15.9592V16.6311C3.15759 17.8235 5.67838 19.1572 9.05204 19.1572Z" fill="white"/>
<path opacity="0.2" d="M9.0521 15.789C9.06939 15.789 9.08641 15.7888 9.10364 15.7887C9.06911 15.5127 9.05109 15.2316 9.05109 14.9463C9.05109 14.6612 9.06906 14.3803 9.10364 14.1045C9.08641 14.1045 9.06934 14.1051 9.0521 14.1051C7.1244 14.1051 5.29888 13.7231 3.91182 13.0296C3.63866 12.893 3.38729 12.7463 3.15759 12.5911V13.2629C3.15765 14.4553 5.67844 15.789 9.0521 15.789Z" fill="white"/>
<path opacity="0.2" d="M9.0521 12.4206C9.21919 12.4206 9.38404 12.4172 9.54681 12.4108C9.80823 11.7694 10.1655 11.177 10.6011 10.6517C10.0968 10.7072 9.57848 10.7367 9.0521 10.7367C7.1244 10.7367 5.29888 10.3548 3.91182 9.66122C3.63866 9.52462 3.38729 9.37796 3.15759 9.22266V9.89451C3.15765 11.087 5.67844 12.4206 9.0521 12.4206Z" fill="white"/>
<path d="M11.5789 12.1551C11.2145 12.7029 10.9541 13.3255 10.8261 13.9946C10.7669 14.303 10.7357 14.6212 10.7357 14.9466C10.7357 15.1912 10.7536 15.4317 10.7873 15.6672C10.8702 16.2455 11.0514 16.7924 11.3134 17.2906C11.5883 17.8134 11.952 18.2825 12.3845 18.6775C13.2833 19.4984 14.4787 19.9998 15.789 19.9998C18.5753 19.9998 20.8422 17.7329 20.8422 14.9466C20.8422 12.1601 18.5753 9.89331 15.789 9.89331C15.501 9.89331 15.2186 9.9179 14.9436 9.96439C13.5429 10.2013 12.3364 11.0165 11.5789 12.1551Z" fill="#6054F0"/>
</svg>
