<svg width="20" height="20" viewBox="0 0 20 20" fill="none" xmlns="http://www.w3.org/2000/svg">
<path d="M11.9149 2.72071C11.9187 2.7176 11.9185 2.71817 11.9145 2.72106L11.9149 2.72071ZM4.34068 9.22525L4.70296 9.56986L4.34068 9.22525C4.33711 9.22901 4.33334 9.23296 4.32942 9.23707C4.28413 9.28453 4.21742 9.35445 4.16925 9.42284C4.11648 9.49777 3.99151 9.70151 4.07703 9.96138C4.16255 10.2212 4.38409 10.311 4.47104 10.3399C4.55042 10.3663 4.64561 10.383 4.71024 10.3943C4.71584 10.3952 4.72121 10.3962 4.72632 10.3971L8.24677 11.0178L7.29743 16.4017C7.29613 16.4091 7.2948 16.4165 7.29347 16.4241C7.27352 16.5369 7.2509 16.6648 7.24586 16.7681C7.24316 16.8234 7.24211 16.9183 7.27271 17.0206C7.3084 17.1399 7.39301 17.2836 7.56036 17.368C7.72771 17.4525 7.89351 17.4353 8.01069 17.3932C8.11117 17.357 8.18692 17.2998 8.22982 17.2648C8.30995 17.1994 8.39941 17.1052 8.47833 17.0222C8.48359 17.0166 8.48881 17.0111 8.49398 17.0057L15.1717 9.98558C15.1753 9.98182 15.179 9.97789 15.1829 9.97378C15.2282 9.92631 15.2949 9.85639 15.3431 9.78799C15.3959 9.71307 15.5209 9.50932 15.4353 9.24946L14.9604 9.40575L15.4353 9.24945C15.3498 8.98959 15.1283 8.89987 15.0413 8.87093C14.962 8.84451 14.8668 8.82788 14.8021 8.81658C14.7965 8.8156 14.7912 8.81467 14.7861 8.81377L11.2656 8.19302L12.2149 2.80914C12.2162 2.80175 12.2176 2.79429 12.2189 2.78676C12.2388 2.67395 12.2615 2.54606 12.2665 2.44275C12.2692 2.38743 12.2703 2.29251 12.2397 2.1902C12.204 2.0709 12.1194 1.92728 11.952 1.8428C11.7847 1.75833 11.6189 1.77554 11.5017 1.81768C11.4012 1.85381 11.3254 1.91103 11.2825 1.94605C11.2024 2.01146 11.113 2.10561 11.0341 2.18865C11.0288 2.1942 11.0236 2.19969 11.0184 2.20513L4.34068 9.22525ZM7.59744 16.4901C7.59363 16.4932 7.59388 16.4927 7.59787 16.4898L7.59744 16.4901Z" fill="white"/>
<path d="M11.9149 2.72071C11.9187 2.7176 11.9185 2.71817 11.9145 2.72106L11.9149 2.72071ZM4.34068 9.22525L4.70296 9.56986L4.34068 9.22525C4.33711 9.22901 4.33334 9.23296 4.32942 9.23707C4.28413 9.28453 4.21742 9.35445 4.16925 9.42284C4.11648 9.49777 3.99151 9.70151 4.07703 9.96138C4.16255 10.2212 4.38409 10.311 4.47104 10.3399C4.55042 10.3663 4.64561 10.383 4.71024 10.3943C4.71584 10.3952 4.72121 10.3962 4.72632 10.3971L8.24677 11.0178L7.29743 16.4017C7.29613 16.4091 7.2948 16.4165 7.29347 16.4241C7.27352 16.5369 7.2509 16.6648 7.24586 16.7681C7.24316 16.8234 7.24211 16.9183 7.27271 17.0206C7.3084 17.1399 7.39301 17.2836 7.56036 17.368C7.72771 17.4525 7.89351 17.4353 8.01069 17.3932C8.11117 17.357 8.18692 17.2998 8.22982 17.2648C8.30995 17.1994 8.39941 17.1052 8.47833 17.0222C8.48359 17.0166 8.48881 17.0111 8.49398 17.0057L15.1717 9.98558C15.1753 9.98182 15.179 9.97789 15.1829 9.97378C15.2282 9.92631 15.2949 9.85639 15.3431 9.78799C15.3959 9.71307 15.5209 9.50932 15.4353 9.24946L14.9604 9.40575L15.4353 9.24945C15.3498 8.98959 15.1283 8.89987 15.0413 8.87093C14.962 8.84451 14.8668 8.82788 14.8021 8.81658C14.7965 8.8156 14.7912 8.81467 14.7861 8.81377L11.2656 8.19302L12.2149 2.80914C12.2162 2.80175 12.2176 2.79429 12.2189 2.78676C12.2388 2.67395 12.2615 2.54606 12.2665 2.44275C12.2692 2.38743 12.2703 2.29251 12.2397 2.1902C12.204 2.0709 12.1194 1.92728 11.952 1.8428C11.7847 1.75833 11.6189 1.77554 11.5017 1.81768C11.4012 1.85381 11.3254 1.91103 11.2825 1.94605C11.2024 2.01146 11.113 2.10561 11.0341 2.18865C11.0288 2.1942 11.0236 2.19969 11.0184 2.20513L4.34068 9.22525ZM7.59744 16.4901C7.59363 16.4932 7.59388 16.4927 7.59787 16.4898L7.59744 16.4901Z" fill="#FFE660"/>
<path d="M11.9149 2.72071C11.9187 2.7176 11.9185 2.71817 11.9145 2.72106L11.9149 2.72071ZM4.34068 9.22525L4.70296 9.56986L4.34068 9.22525C4.33711 9.22901 4.33334 9.23296 4.32942 9.23707C4.28413 9.28453 4.21742 9.35445 4.16925 9.42284C4.11648 9.49777 3.99151 9.70151 4.07703 9.96138C4.16255 10.2212 4.38409 10.311 4.47104 10.3399C4.55042 10.3663 4.64561 10.383 4.71024 10.3943C4.71584 10.3952 4.72121 10.3962 4.72632 10.3971L8.24677 11.0178L7.29743 16.4017C7.29613 16.4091 7.2948 16.4165 7.29347 16.4241C7.27352 16.5369 7.2509 16.6648 7.24586 16.7681C7.24316 16.8234 7.24211 16.9183 7.27271 17.0206C7.3084 17.1399 7.39301 17.2836 7.56036 17.368C7.72771 17.4525 7.89351 17.4353 8.01069 17.3932C8.11117 17.357 8.18692 17.2998 8.22982 17.2648C8.30995 17.1994 8.39941 17.1052 8.47833 17.0222C8.48359 17.0166 8.48881 17.0111 8.49398 17.0057L15.1717 9.98558C15.1753 9.98182 15.179 9.97789 15.1829 9.97378C15.2282 9.92631 15.2949 9.85639 15.3431 9.78799C15.3959 9.71307 15.5209 9.50932 15.4353 9.24946L14.9604 9.40575L15.4353 9.24945C15.3498 8.98959 15.1283 8.89987 15.0413 8.87093C14.962 8.84451 14.8668 8.82788 14.8021 8.81658C14.7965 8.8156 14.7912 8.81467 14.7861 8.81377L11.2656 8.19302L12.2149 2.80914C12.2162 2.80175 12.2176 2.79429 12.2189 2.78676C12.2388 2.67395 12.2615 2.54606 12.2665 2.44275C12.2692 2.38743 12.2703 2.29251 12.2397 2.1902C12.204 2.0709 12.1194 1.92728 11.952 1.8428C11.7847 1.75833 11.6189 1.77554 11.5017 1.81768C11.4012 1.85381 11.3254 1.91103 11.2825 1.94605C11.2024 2.01146 11.113 2.10561 11.0341 2.18865C11.0288 2.1942 11.0236 2.19969 11.0184 2.20513L4.34068 9.22525ZM7.59744 16.4901C7.59363 16.4932 7.59388 16.4927 7.59787 16.4898L7.59744 16.4901Z" stroke="#FFE660"/>
</svg>
