<svg width="225" height="48" viewBox="0 0 225 48" fill="none" xmlns="http://www.w3.org/2000/svg">
<g filter="url(#filter0_b_56_347)">
<path d="M0 24C0 4.236 4.236 0 24 0C43.764 0 48 4.236 48 24C48 43.764 43.764 48 24 48C4.236 48 0 43.764 0 24Z" fill="white" fill-opacity="0.1"/>
</g>
<path d="M29.554 19.2959C32.005 19.2959 34 21.3557 34 23.8873V28.9196C34 31.4451 32.01 33.4997 29.564 33.4997H18.448C15.996 33.4997 14 31.4409 14 28.9093V23.877C14 21.3516 15.991 19.2959 18.438 19.2959H19.378L29.554 19.2959Z" fill="white" fill-opacity="0.2"/>
<path d="M24.5459 28.0374L27.4549 25.0695C27.7549 24.7627 27.7549 24.2691 27.4529 23.9634C27.1509 23.6587 26.6639 23.6597 26.3639 23.9654L24.7709 25.5905L24.7709 15.2821C24.7709 14.8504 24.4259 14.5 23.9999 14.5C23.5749 14.5 23.2309 14.8504 23.2309 15.2821V25.5905L21.6369 23.9654C21.3369 23.6597 20.8499 23.6587 20.5479 23.9634C20.3969 24.1168 20.3209 24.3168 20.3209 24.518C20.3209 24.717 20.3969 24.9171 20.5459 25.0695L23.4549 28.0374C23.5999 28.1847 23.7959 28.268 23.9999 28.268C24.2049 28.268 24.4009 28.1847 24.5459 28.0374Z" fill="#4DCA77"/>
<g filter="url(#filter1_b_56_347)">
<path d="M59 24C59 4.236 63.236 0 83 0C102.764 0 107 4.236 107 24C107 43.764 102.764 48 83 48C63.236 48 59 43.764 59 24Z" fill="white" fill-opacity="0.1"/>
</g>
<path d="M77.447 34C74.996 34 73 31.9698 73 29.4755V24.5144C73 22.0252 74.99 20 77.437 20H88.553C91.005 20 93 22.0302 93 24.5256V29.4846C93 31.9748 91.01 34 88.563 34H87.623H77.447Z" fill="white" fill-opacity="0.2"/>
<path d="M82.4541 14.2208L79.5451 17.0666C79.2451 17.3607 79.2451 17.834 79.5471 18.1272C79.8491 18.4193 80.3361 18.4184 80.6361 18.1252L82.2291 16.566V18.0609V26.4513C82.2291 26.8652 82.5741 27.2012 82.9991 27.2012C83.4251 27.2012 83.7691 26.8652 83.7691 26.4513V16.566L85.3621 18.1252C85.6621 18.4184 86.1491 18.4193 86.4511 18.1272C86.6021 17.9801 86.6781 17.7882 86.6781 17.5954C86.6781 17.4045 86.6021 17.2127 86.4531 17.0666L83.5451 14.2208C83.4001 14.0796 83.2041 13.9997 82.9991 13.9997C82.7951 13.9997 82.5991 14.0796 82.4541 14.2208Z" fill="#FF4B4B"/>
<g filter="url(#filter2_b_56_347)">
<path d="M118 24C118 4.236 122.236 0 142 0C161.764 0 166 4.236 166 24C166 43.764 161.764 48 142 48C122.236 48 118 43.764 118 24Z" fill="white" fill-opacity="0.1"/>
</g>
<path d="M140.26 31.9718C138.46 31.564 136.967 30.6262 135.78 29.1583C134.593 27.6903 134 25.9709 134 24.0001C134 22.7632 134.243 21.6215 134.73 20.5749C135.217 19.5283 135.88 18.6313 136.72 17.8837H135.6C135.373 17.8837 135.183 17.8054 135.03 17.6489C134.877 17.4928 134.8 17.2993 134.8 17.0682C134.8 16.8371 134.877 16.6433 135.03 16.4867C135.183 16.3307 135.373 16.2527 135.6 16.2527H138.8C139.027 16.2527 139.217 16.3307 139.37 16.4867C139.523 16.6433 139.6 16.8371 139.6 17.0682V20.3303C139.6 20.5613 139.523 20.7552 139.37 20.9117C139.217 21.0678 139.027 21.1458 138.8 21.1458C138.573 21.1458 138.383 21.0678 138.23 20.9117C138.077 20.7552 138 20.5613 138 20.3303V18.9235C137.267 19.5216 136.683 20.2591 136.25 21.136C135.817 22.0124 135.6 22.9671 135.6 24.0001C135.6 25.5632 136.07 26.9256 137.01 28.0875C137.95 29.2499 139.133 30.001 140.56 30.3408C140.747 30.3815 140.9 30.4767 141.02 30.6262C141.14 30.7757 141.2 30.9456 141.2 31.1359C141.2 31.4077 141.107 31.632 140.92 31.8087C140.733 31.9854 140.513 32.0397 140.26 31.9718Z" fill="#FFC93F"/>
<path d="M148.22 18.8419C147.033 17.3739 145.54 16.4361 143.74 16.0283C143.486 15.9604 143.266 16.0147 143.08 16.1914C142.893 16.3681 142.8 16.5924 142.8 16.8642C142.8 17.0545 142.86 17.2244 142.98 17.3739C143.1 17.5234 143.253 17.6186 143.44 17.6594C144.866 17.9992 146.05 18.75 146.99 19.9118C147.93 21.0742 148.4 22.4369 148.4 24C148.4 25.033 148.183 25.9844 147.75 26.8543C147.317 27.7242 146.733 28.465 146 29.0766V27.6698C146 27.4388 145.923 27.2449 145.769 27.0884C145.616 26.9323 145.426 26.8543 145.2 26.8543C144.973 26.8543 144.783 26.9323 144.63 27.0884C144.477 27.2449 144.4 27.4388 144.4 27.6698V30.9319C144.4 31.163 144.477 31.3565 144.63 31.5125C144.783 31.6691 144.973 31.7474 145.2 31.7474H148.4C148.626 31.7474 148.816 31.6691 148.969 31.5125C149.123 31.3565 149.2 31.163 149.2 30.9319C149.2 30.7008 149.123 30.5073 148.969 30.3513C148.816 30.1947 148.626 30.1164 148.4 30.1164H147.28C148.12 29.3688 148.783 28.4718 149.269 27.4252C149.756 26.3786 150 25.2369 150 24C150 22.0292 149.406 20.3098 148.22 18.8419Z" fill="white" fill-opacity="0.2"/>
<g filter="url(#filter3_b_56_347)">
<path d="M177 24C177 4.236 181.236 0 201 0C220.764 0 225 4.236 225 24C225 43.764 220.764 48 201 48C181.236 48 177 43.764 177 24Z" fill="white" fill-opacity="0.1"/>
</g>
<defs>
<filter id="filter0_b_56_347" x="-20" y="-20" width="88" height="88" filterUnits="userSpaceOnUse" color-interpolation-filters="sRGB">
<feFlood flood-opacity="0" result="BackgroundImageFix"/>
<feGaussianBlur in="BackgroundImageFix" stdDeviation="10"/>
<feComposite in2="SourceAlpha" operator="in" result="effect1_backgroundBlur_56_347"/>
<feBlend mode="normal" in="SourceGraphic" in2="effect1_backgroundBlur_56_347" result="shape"/>
</filter>
<filter id="filter1_b_56_347" x="39" y="-20" width="88" height="88" filterUnits="userSpaceOnUse" color-interpolation-filters="sRGB">
<feFlood flood-opacity="0" result="BackgroundImageFix"/>
<feGaussianBlur in="BackgroundImageFix" stdDeviation="10"/>
<feComposite in2="SourceAlpha" operator="in" result="effect1_backgroundBlur_56_347"/>
<feBlend mode="normal" in="SourceGraphic" in2="effect1_backgroundBlur_56_347" result="shape"/>
</filter>
<filter id="filter2_b_56_347" x="98" y="-20" width="88" height="88" filterUnits="userSpaceOnUse" color-interpolation-filters="sRGB">
<feFlood flood-opacity="0" result="BackgroundImageFix"/>
<feGaussianBlur in="BackgroundImageFix" stdDeviation="10"/>
<feComposite in2="SourceAlpha" operator="in" result="effect1_backgroundBlur_56_347"/>
<feBlend mode="normal" in="SourceGraphic" in2="effect1_backgroundBlur_56_347" result="shape"/>
</filter>
<filter id="filter3_b_56_347" x="157" y="-20" width="88" height="88" filterUnits="userSpaceOnUse" color-interpolation-filters="sRGB">
<feFlood flood-opacity="0" result="BackgroundImageFix"/>
<feGaussianBlur in="BackgroundImageFix" stdDeviation="10"/>
<feComposite in2="SourceAlpha" operator="in" result="effect1_backgroundBlur_56_347"/>
<feBlend mode="normal" in="SourceGraphic" in2="effect1_backgroundBlur_56_347" result="shape"/>
</filter>
</defs>
</svg>
