<svg width="11" height="11" viewBox="0 0 11 11" fill="none" xmlns="http://www.w3.org/2000/svg">
<path d="M8.81465 0.562222L6.51942 3.97222C6.36071 4.20444 6.66593 4.48555 6.88568 4.29L9.14428 2.32222C9.20533 2.27333 9.29079 2.31 9.29079 2.39556V8.54333C9.29079 8.62889 9.18091 8.66556 9.13208 8.60444L2.29523 0.415556C2.07547 0.146667 1.75805 0 1.404 0H1.15982C0.524972 0 0 0.525556 0 1.17333V9.82667C0 10.4744 0.524972 11 1.17203 11C1.57492 11 1.95339 10.7922 2.17314 10.4378L4.46837 7.02778C4.62708 6.79556 4.32186 6.51444 4.10211 6.71L1.84351 8.66556C1.78246 8.71444 1.697 8.67778 1.697 8.59222V2.45667C1.697 2.37111 1.80688 2.33444 1.85572 2.39556L8.69256 10.5844C8.91232 10.8533 9.24195 11 9.5838 11H9.82797C10.475 11 11 10.4744 11 9.82667V1.17333C11 0.525556 10.475 0 9.82797 0C9.41288 0 9.03441 0.207778 8.81465 0.562222Z" fill="white"/>
</svg>
