<svg width="20" height="20" viewBox="0 0 20 20" fill="none" xmlns="http://www.w3.org/2000/svg">
<path d="M10.8535 2.37022L11.0918 2.60347L10.8535 2.37022L3.78571 9.5914C3.78203 9.59516 3.77816 9.5991 3.77413 9.6032C3.72741 9.65079 3.65913 9.72035 3.60966 9.78847C3.55608 9.86225 3.426 10.0666 3.51063 10.3301C3.59525 10.5935 3.82001 10.6839 3.90653 10.7127C3.98642 10.7393 4.08244 10.7561 4.14813 10.7675C4.15379 10.7685 4.15923 10.7695 4.16442 10.7704L7.94125 11.4364L6.95692 17.0187C6.95563 17.026 6.95432 17.0334 6.953 17.0408C6.93354 17.1508 6.91124 17.2769 6.90639 17.3792C6.90378 17.4342 6.90292 17.5287 6.93373 17.6307C6.96967 17.7497 7.05373 17.8907 7.21749 17.9748C7.38125 18.059 7.54479 18.0452 7.66245 18.0051C7.76332 17.9708 7.83965 17.9151 7.88288 17.8809C7.96319 17.8174 8.05271 17.7258 8.1308 17.6459C8.1361 17.6405 8.14135 17.6351 8.14654 17.6298L15.2144 10.4087C15.218 10.4049 15.2219 10.401 15.2259 10.3969C15.2727 10.3493 15.3409 10.2797 15.3904 10.2116C15.444 10.1378 15.5741 9.93343 15.4894 9.66998C15.4048 9.40653 15.1801 9.31613 15.0935 9.28735C15.0137 9.26078 14.9176 9.244 14.8519 9.23252C14.8463 9.23153 14.8408 9.23058 14.8357 9.22966L11.0588 8.56371L12.0432 2.98141C12.0444 2.9741 12.0457 2.9667 12.0471 2.95923C12.0665 2.84924 12.0888 2.72314 12.0937 2.62088C12.0963 2.56583 12.0972 2.47133 12.0663 2.36932C12.0304 2.25033 11.9463 2.10938 11.7826 2.02524L11.5541 2.46998L11.7826 2.02524C11.6188 1.94111 11.4553 1.95486 11.3376 1.99493C11.2367 2.02928 11.1604 2.08501 11.1172 2.11919C11.0369 2.18268 10.9474 2.27425 10.8693 2.35412C10.864 2.35955 10.8587 2.36492 10.8535 2.37022ZM7.26269 17.0964C7.25927 17.0991 7.2596 17.0985 7.26338 17.0959L7.26269 17.0964ZM11.7374 2.90364C11.7408 2.90094 11.7405 2.90152 11.7367 2.90419L11.7374 2.90364Z" fill="white"/>
<path d="M10.8535 2.37022L11.0918 2.60347L10.8535 2.37022L3.78571 9.5914C3.78203 9.59516 3.77816 9.5991 3.77413 9.6032C3.72741 9.65079 3.65913 9.72035 3.60966 9.78847C3.55608 9.86225 3.426 10.0666 3.51063 10.3301C3.59525 10.5935 3.82001 10.6839 3.90653 10.7127C3.98642 10.7393 4.08244 10.7561 4.14813 10.7675C4.15379 10.7685 4.15923 10.7695 4.16442 10.7704L7.94125 11.4364L6.95692 17.0187C6.95563 17.026 6.95432 17.0334 6.953 17.0408C6.93354 17.1508 6.91124 17.2769 6.90639 17.3792C6.90378 17.4342 6.90292 17.5287 6.93373 17.6307C6.96967 17.7497 7.05373 17.8907 7.21749 17.9748C7.38125 18.059 7.54479 18.0452 7.66245 18.0051C7.76332 17.9708 7.83965 17.9151 7.88288 17.8809C7.96319 17.8174 8.05271 17.7258 8.1308 17.6459C8.1361 17.6405 8.14135 17.6351 8.14654 17.6298L15.2144 10.4087C15.218 10.4049 15.2219 10.401 15.2259 10.3969C15.2727 10.3493 15.3409 10.2797 15.3904 10.2116C15.444 10.1378 15.5741 9.93343 15.4894 9.66998C15.4048 9.40653 15.1801 9.31613 15.0935 9.28735C15.0137 9.26078 14.9176 9.244 14.8519 9.23252C14.8463 9.23153 14.8408 9.23058 14.8357 9.22966L11.0588 8.56371L12.0432 2.98141C12.0444 2.9741 12.0457 2.9667 12.0471 2.95923C12.0665 2.84924 12.0888 2.72314 12.0937 2.62088C12.0963 2.56583 12.0972 2.47133 12.0663 2.36932C12.0304 2.25033 11.9463 2.10938 11.7826 2.02524L11.5541 2.46998L11.7826 2.02524C11.6188 1.94111 11.4553 1.95486 11.3376 1.99493C11.2367 2.02928 11.1604 2.08501 11.1172 2.11919C11.0369 2.18268 10.9474 2.27425 10.8693 2.35412C10.864 2.35955 10.8587 2.36492 10.8535 2.37022ZM7.26269 17.0964C7.25927 17.0991 7.2596 17.0985 7.26338 17.0959L7.26269 17.0964ZM11.7374 2.90364C11.7408 2.90094 11.7405 2.90152 11.7367 2.90419L11.7374 2.90364Z" fill="#FFE660"/>
<path d="M10.8535 2.37022L11.0918 2.60347L10.8535 2.37022L3.78571 9.5914C3.78203 9.59516 3.77816 9.5991 3.77413 9.6032C3.72741 9.65079 3.65913 9.72035 3.60966 9.78847C3.55608 9.86225 3.426 10.0666 3.51063 10.3301C3.59525 10.5935 3.82001 10.6839 3.90653 10.7127C3.98642 10.7393 4.08244 10.7561 4.14813 10.7675C4.15379 10.7685 4.15923 10.7695 4.16442 10.7704L7.94125 11.4364L6.95692 17.0187C6.95563 17.026 6.95432 17.0334 6.953 17.0408C6.93354 17.1508 6.91124 17.2769 6.90639 17.3792C6.90378 17.4342 6.90292 17.5287 6.93373 17.6307C6.96967 17.7497 7.05373 17.8907 7.21749 17.9748C7.38125 18.059 7.54479 18.0452 7.66245 18.0051C7.76332 17.9708 7.83965 17.9151 7.88288 17.8809C7.96319 17.8174 8.05271 17.7258 8.1308 17.6459C8.1361 17.6405 8.14135 17.6351 8.14654 17.6298L15.2144 10.4087C15.218 10.4049 15.2219 10.401 15.2259 10.3969C15.2727 10.3493 15.3409 10.2797 15.3904 10.2116C15.444 10.1378 15.5741 9.93343 15.4894 9.66998C15.4048 9.40653 15.1801 9.31613 15.0935 9.28735C15.0137 9.26078 14.9176 9.244 14.8519 9.23252C14.8463 9.23153 14.8408 9.23058 14.8357 9.22966L11.0588 8.56371L12.0432 2.98141C12.0444 2.9741 12.0457 2.9667 12.0471 2.95923C12.0665 2.84924 12.0888 2.72314 12.0937 2.62088C12.0963 2.56583 12.0972 2.47133 12.0663 2.36932C12.0304 2.25033 11.9463 2.10938 11.7826 2.02524L11.5541 2.46998L11.7826 2.02524C11.6188 1.94111 11.4553 1.95486 11.3376 1.99493C11.2367 2.02928 11.1604 2.08501 11.1172 2.11919C11.0369 2.18268 10.9474 2.27425 10.8693 2.35412C10.864 2.35955 10.8587 2.36492 10.8535 2.37022ZM7.26269 17.0964C7.25927 17.0991 7.2596 17.0985 7.26338 17.0959L7.26269 17.0964ZM11.7374 2.90364C11.7408 2.90094 11.7405 2.90152 11.7367 2.90419L11.7374 2.90364Z" stroke="#FFE660"/>
</svg>
