<svg width="13" height="9" viewBox="0 0 13 9" fill="none" xmlns="http://www.w3.org/2000/svg">
<path d="M9.36092 0.0155039C10.0781 0.0155039 10.7087 0.170543 11.2529 0.48062C11.8022 0.78553 12.2295 1.22997 12.5346 1.81395C12.8449 2.39793 13 3.11111 13 3.95349V5.10078H7.48416C7.50959 5.76744 7.7054 6.29199 8.0716 6.67442C8.44288 7.05168 8.95657 7.24031 9.61268 7.24031C10.1264 7.24031 10.6197 7.18346 11.0927 7.06977C11.5657 6.95607 12.0387 6.78553 12.5117 6.55814V8.3876C12.0845 8.59948 11.6395 8.75452 11.1766 8.85271C10.7189 8.9509 10.1543 9 9.48298 9C9.02015 9 8.58275 8.94315 8.17077 8.82946C7.7588 8.71059 7.38243 8.53488 7.04167 8.30233C6.70599 8.0646 6.41608 7.76486 6.17195 7.4031C5.86678 7.77003 5.56162 8.07235 5.25646 8.31008C4.95129 8.5478 4.59781 8.72351 4.19601 8.83721C3.7993 8.94574 3.30595 9 2.71596 9C2.2277 9 1.77758 8.90181 1.36561 8.70543C0.953638 8.50904 0.623044 8.2093 0.373826 7.8062C0.124609 7.39793 0 6.88114 0 6.25581C0 5.64083 0.137324 5.13695 0.411972 4.74419C0.68662 4.34625 1.09605 4.04651 1.64026 3.84496C2.18955 3.64341 2.87109 3.52713 3.68486 3.49612L5.14202 3.44961V2.79845C5.14202 2.44186 5.02758 2.17829 4.79871 2.00775C4.57492 1.83721 4.26721 1.75194 3.87559 1.75194C3.4687 1.75194 3.07453 1.8062 2.69308 1.91473C2.31162 2.02326 1.93016 2.16796 1.54871 2.34884L0.793427 0.782946C1.241 0.540052 1.74198 0.348837 2.29636 0.209302C2.85074 0.0697674 3.42293 0 4.01291 0C4.58764 0 5.09116 0.0852713 5.52347 0.255814C5.96088 0.421189 6.32707 0.674419 6.62207 1.0155C6.95775 0.679587 7.34429 0.428941 7.78169 0.263566C8.22418 0.0981912 8.75059 0.0155039 9.36092 0.0155039ZM5.14202 4.82946L4.27993 4.86047C3.57297 4.88114 3.07962 5.01809 2.79988 5.27132C2.52523 5.52455 2.38791 5.85788 2.38791 6.27132C2.38791 6.63307 2.48455 6.89147 2.67782 7.04651C2.87617 7.19638 3.13556 7.27132 3.45599 7.27132C3.77641 7.27132 4.06377 7.20413 4.31808 7.06977C4.57238 6.9354 4.77328 6.73902 4.92077 6.48062C5.06827 6.22222 5.14202 5.90956 5.14202 5.54264V4.82946ZM9.31514 1.69767C8.79636 1.69767 8.3793 1.84496 8.06397 2.13953C7.75372 2.43411 7.5757 2.89664 7.52993 3.52713H10.8104C10.8054 3.17571 10.7443 2.86305 10.6273 2.58915C10.5155 2.31525 10.3502 2.09819 10.1315 1.93798C9.91275 1.77778 9.64065 1.69767 9.31514 1.69767Z" fill="white"/>
</svg>
