<svg width="24" height="24" viewBox="0 0 24 24" fill="none" xmlns="http://www.w3.org/2000/svg">
<path d="M11.7617 15.0799C10.1573 15.0799 8.85938 13.8299 8.85938 12.2599C8.85938 10.6899 10.1573 9.42993 11.7617 9.42993C13.3662 9.42993 14.6334 10.6899 14.6334 12.2599C14.6334 13.8299 13.3662 15.0799 11.7617 15.0799Z" fill="white"/>
<path opacity="0.4" d="M20.9801 14.62C20.786 14.32 20.51 14.02 20.1523 13.83C19.8662 13.69 19.6822 13.46 19.5187 13.19C18.9975 12.33 19.3041 11.2 20.1728 10.69C21.1947 10.12 21.5218 8.85 20.929 7.86L20.2443 6.68C19.6618 5.69 18.3844 5.34 17.3726 5.92C16.4733 6.4 15.3185 6.08 14.7973 5.23C14.6338 4.95 14.5418 4.65 14.5622 4.35C14.5929 3.96 14.4703 3.59 14.2863 3.29C13.9082 2.67 13.2235 2.25 12.4672 2.25L11.0263 2.25C10.2802 2.27 9.59553 2.67 9.2174 3.29C9.02323 3.59 8.91081 3.96 8.93125 4.35C8.95169 4.65 8.85972 4.95 8.6962 5.23C8.175 6.08 7.02019 6.4 6.13109 5.92C5.10913 5.34 3.84191 5.69 3.24917 6.68L2.56446 7.86C1.98194 8.85 2.30897 10.12 3.32071 10.69C4.18937 11.2 4.49596 12.33 3.98498 13.19C3.81125 13.46 3.62729 13.69 3.34115 13.83C2.99368 14.02 2.68709 14.32 2.52358 14.62C2.14546 15.24 2.1659 16.02 2.54402 16.67L3.24917 17.87C3.62729 18.51 4.33245 18.91 5.06825 18.91C5.41572 18.91 5.8245 18.81 6.15153 18.61C6.40702 18.44 6.71361 18.38 7.05085 18.38C8.06259 18.38 8.91081 19.21 8.93125 20.2C8.93125 21.35 9.87145 22.25 11.0569 22.25H12.4468C13.622 22.25 14.5622 21.35 14.5622 20.2C14.5929 19.21 15.4411 18.38 16.4529 18.38C16.7799 18.38 17.0865 18.44 17.3522 18.61C17.6792 18.81 18.0778 18.91 18.4355 18.91C19.161 18.91 19.8662 18.51 20.2443 17.87L20.9597 16.67C21.3276 16 21.3583 15.24 20.9801 14.62Z" fill="white"/>
</svg>
