<svg width="24" height="24" viewBox="0 0 24 24" fill="none" xmlns="http://www.w3.org/2000/svg">
<rect opacity="0.4" x="0.54541" y="3" width="22.9091" height="18" rx="5" fill="white"/>
<path opacity="0.4" d="M7.09096 13.6365C5.32589 13.6365 3.81824 13.881 3.81824 14.8593C3.81824 15.8378 5.31648 16.091 7.09096 16.091C8.85604 16.091 10.3637 15.8468 10.3637 14.8682C10.3637 13.8897 8.86586 13.6365 7.09096 13.6365Z" fill="white"/>
<path d="M7.0909 11.9999C8.45361 11.9999 9.54544 10.9076 9.54544 9.54537C9.54544 8.18312 8.45361 7.09082 7.0909 7.09082C5.72865 7.09082 4.63635 8.18312 4.63635 9.54537C4.63635 10.9076 5.72865 11.9999 7.0909 11.9999Z" fill="white"/>
<path d="M13.6362 8.72705H20.1817" stroke="white" stroke-width="1.5" stroke-linecap="round"/>
<path opacity="0.4" d="M13.6362 12H16.909" stroke="white" stroke-width="1.5" stroke-linecap="round"/>
<path opacity="0.4" d="M13.6362 15.2729H18.5453" stroke="white" stroke-width="1.5" stroke-linecap="round"/>
</svg>
