<svg width="18" height="9" viewBox="0 0 18 9" fill="none" xmlns="http://www.w3.org/2000/svg">
<path fill-rule="evenodd" clip-rule="evenodd" d="M11.4341 0.48062C10.8811 0.170543 10.2403 0.0155039 9.51163 0.0155039C8.89147 0.0155039 8.35659 0.0981912 7.90698 0.263566C7.46253 0.428941 7.06977 0.679587 6.72868 1.0155C6.42894 0.674419 6.05685 0.421189 5.6124 0.255814C5.17313 0.0852713 4.6615 0 4.07752 0C3.47804 0 2.89664 0.0697674 2.33333 0.209302C1.77003 0.348837 1.26098 0.540052 0.806202 0.782946L1.57364 2.34884C1.96124 2.16796 2.34884 2.02326 2.73643 1.91473C3.12403 1.8062 3.52455 1.75194 3.93798 1.75194C4.33592 1.75194 4.64858 1.83721 4.87597 2.00775C5.10853 2.17829 5.22481 2.44186 5.22481 2.79845V3.44961L3.74419 3.49612C2.91731 3.52713 2.22481 3.64341 1.66667 3.84496C1.1137 4.04651 0.697674 4.34625 0.418605 4.74419C0.139535 5.13695 0 5.64083 0 6.25581C0 6.88114 0.126615 7.39793 0.379845 7.8062C0.633075 8.2093 0.968992 8.50904 1.3876 8.70543C1.8062 8.90181 2.26357 9 2.75969 9C3.35917 9 3.86047 8.94574 4.26357 8.83721C4.67183 8.72351 5.03101 8.5478 5.34109 8.31008C5.65116 8.07235 5.96124 7.77003 6.27132 7.4031C6.51938 7.76486 6.81395 8.0646 7.15504 8.30233C7.50129 8.53488 7.88372 8.71059 8.30233 8.82946C8.72093 8.94315 9.16537 9 9.63566 9H14.1628C14.9793 9 15.6615 8.89664 16.2093 8.68992C16.7571 8.47804 17.168 8.17054 17.4419 7.76744C17.7209 7.35917 17.8605 6.86047 17.8605 6.27132C17.8605 5.75969 17.7623 5.34367 17.5659 5.02326C17.3695 4.69767 17.0904 4.42636 16.7287 4.2093C16.3669 3.98708 15.9406 3.77519 15.4496 3.57364C14.9432 3.36693 14.5581 3.19897 14.2946 3.06977C14.0362 2.9354 13.8605 2.81395 13.7674 2.70543C13.6796 2.5969 13.6357 2.47287 13.6357 2.33333C13.6357 2.14212 13.7235 2 13.8992 1.90698C14.0749 1.81395 14.3359 1.76744 14.6822 1.76744C15.0749 1.76744 15.4599 1.82687 15.8372 1.94574C16.2196 2.0646 16.6253 2.21705 17.0543 2.4031L17.7674 0.697674C17.2506 0.459948 16.7468 0.286822 16.2558 0.178295C15.77 0.0697674 15.2584 0.0155039 14.7209 0.0155039C13.677 0.0155039 12.8424 0.219638 12.2171 0.627907C12.1204 0.690753 12.0312 0.758436 11.9496 0.830955C11.7915 0.698757 11.6196 0.581979 11.4341 0.48062ZM5.22481 4.82946L4.34884 4.86047C3.63049 4.88114 3.1292 5.01809 2.84496 5.27132C2.56589 5.52455 2.42636 5.85788 2.42636 6.27132C2.42636 6.63307 2.52455 6.89147 2.72093 7.04651C2.92248 7.19638 3.18605 7.27132 3.51163 7.27132C3.83721 7.27132 4.1292 7.20413 4.3876 7.06977C4.646 6.9354 4.85013 6.73902 5 6.48062C5.14987 6.22222 5.22481 5.90956 5.22481 5.54264V4.82946ZM9.46512 1.69767C8.93799 1.69767 8.51421 1.84496 8.1938 2.13953C7.87855 2.43411 7.69767 2.89664 7.65116 3.52713H10.9845C10.9793 3.17571 10.9173 2.86305 10.7985 2.58915C10.6848 2.31525 10.5168 2.09819 10.2946 1.93798C10.0724 1.77778 9.79587 1.69767 9.46512 1.69767ZM7.60465 5.10078C7.60465 5.10078 13.0992 4.92879 13.5518 5.12068C14.0044 5.31256 14.4634 5.5008 14.8915 5.74419C15.155 5.88889 15.3256 6.02067 15.4031 6.13953C15.4858 6.25323 15.5271 6.38243 15.5271 6.52713C15.5271 6.74935 15.4264 6.93023 15.2248 7.06977C15.0284 7.20413 14.7003 7.27132 14.2403 7.27132C13.7804 7.27132 10.4341 7.24031 9.76744 7.24031C9.10078 7.24031 8.57881 7.05168 8.20155 6.67442C7.82946 6.29199 7.63049 5.76744 7.60465 5.10078Z" fill="white"/>
</svg>
