<svg width="67" height="34" viewBox="0 0 67 34" fill="none" xmlns="http://www.w3.org/2000/svg">
<rect width="67" height="34" rx="12" fill="#1A1A1A"/>
<g filter="url(#filter0_b_56_444)">
<path d="M4 17C4 6.2945 6.2945 4 17 4C27.7055 4 30 6.2945 30 17C30 27.7055 27.7055 30 17 30C6.2945 30 4 27.7055 4 17Z" fill="#353535"/>
</g>
<path opacity="0.4" d="M24.7736 18.5418C24.5916 18.4295 24.3566 18.4501 24.199 18.5942C23.0513 19.6352 21.5667 20.2088 20.0194 20.2088C16.5852 20.2088 13.7911 17.4147 13.7911 13.9804C13.7911 12.433 14.3648 10.9484 15.4058 9.80068C15.5493 9.64248 15.5709 9.40809 15.4581 9.22608C15.3453 9.04456 15.1245 8.96033 14.9205 9.01795C11.4343 10.0052 9 13.2279 9 16.855C9 21.3463 12.6537 25 17.1448 25C20.7717 25 23.9945 22.5656 24.9817 19.0794C25.0402 18.8735 24.9551 18.6545 24.7736 18.5418Z" fill="white"/>
<path d="M17.2654 15.0206L18.4025 15.5912L18.9706 16.7335C19.0517 16.8969 19.2181 17 19.4 17C19.582 17 19.7478 16.8969 19.8294 16.7335L20.3981 15.5912L21.5347 15.0206C21.6974 14.9386 21.8 14.7719 21.8 14.5893C21.8 14.4066 21.6974 14.2399 21.5347 14.158L20.3981 13.5872L19.8294 12.445C19.6662 12.1183 19.1329 12.1183 18.9706 12.445L18.4025 13.5872L17.2654 14.158C17.1027 14.2394 17 14.4066 17 14.5893C17 14.7719 17.1027 14.9391 17.2654 15.0206Z" fill="white"/>
<path d="M22.1999 11.4H22.5999V11.8C22.5999 12.0211 22.7789 12.2 22.9999 12.2C23.221 12.2 23.4 12.0211 23.4 11.8V11.4H23.8C24.021 11.4 24.2 11.2212 24.2 11C24.2 10.7789 24.021 10.6001 23.8 10.6001H23.4V10.2001C23.4 9.97891 23.221 9.80005 22.9999 9.80005C22.7789 9.80005 22.5999 9.97891 22.5999 10.2001V10.6001H22.1999C21.9788 10.6001 21.8 10.7789 21.8 11C21.8 11.2212 21.9788 11.4 22.1999 11.4Z" fill="white"/>
<path d="M48 12.9922C45.7903 12.9922 43.9926 14.7902 43.9926 17C43.9926 19.2097 45.7903 21.0078 48 21.0078C50.2094 21.0078 52.0074 19.2101 52.0074 17C52.0074 14.7899 50.2094 12.9922 48 12.9922Z" fill="white"/>
<path opacity="0.4" d="M47.9999 11.8145C47.5681 11.8145 47.218 11.4645 47.218 11.0329V9.78193C47.218 9.35004 47.5681 9 47.9999 9C48.4318 9 48.7819 9.35004 48.7819 9.78193V11.0329C48.7819 11.4645 48.4315 11.8145 47.9999 11.8145Z" fill="white"/>
<path opacity="0.4" d="M48.0001 22.1848C47.5682 22.1848 47.2181 22.5349 47.2181 22.9667V24.2174C47.2181 24.6497 47.5682 24.9997 48.0001 24.9997C48.432 24.9997 48.782 24.6497 48.782 24.2174V22.9667C48.782 22.5349 48.4316 22.1848 48.0001 22.1848Z" fill="white"/>
<path opacity="0.4" d="M51.6663 13.3332C51.3612 13.0278 51.3612 12.5329 51.6663 12.2275L52.551 11.3428C52.856 11.0378 53.3513 11.0378 53.6567 11.3428C53.9621 11.6482 53.9621 12.1435 53.6567 12.4486L52.772 13.3332C52.467 13.6386 51.972 13.6386 51.6663 13.3332Z" fill="white"/>
<path opacity="0.4" d="M44.3334 20.6668C44.028 20.3611 43.533 20.3611 43.2276 20.6668L42.3429 21.5511C42.0379 21.8562 42.0375 22.3518 42.3429 22.6569C42.6483 22.9619 43.1436 22.9619 43.4487 22.6569L44.3334 21.7719C44.6388 21.4668 44.6388 20.9715 44.3334 20.6668Z" fill="white"/>
<path opacity="0.4" d="M53.1852 16.9999C53.1852 16.5681 53.5352 16.218 53.9671 16.218H55.2181C55.65 16.218 56.0001 16.5681 56.0001 16.9999C56.0001 17.4318 55.65 17.7815 55.2181 17.7815H53.9671C53.5352 17.7815 53.1852 17.4318 53.1852 16.9999Z" fill="white"/>
<path opacity="0.4" d="M42.8145 16.9999C42.8145 16.5681 42.4645 16.218 42.0326 16.218H40.7819C40.35 16.218 40 16.5681 40 16.9999C40 17.4318 40.35 17.7815 40.7819 17.7815H42.0329C42.4645 17.7815 42.8145 17.4318 42.8145 16.9999Z" fill="white"/>
<path opacity="0.4" d="M51.6662 20.667C51.9716 20.362 52.4669 20.362 52.7719 20.667L53.6566 21.5517C53.962 21.8564 53.962 22.3521 53.6566 22.6571C53.3512 22.9621 52.8563 22.9621 52.5509 22.6571L51.6662 21.7724C51.3608 21.467 51.3608 20.9721 51.6662 20.667Z" fill="white"/>
<path opacity="0.4" d="M44.3335 13.3331C44.6389 13.0277 44.6389 12.5328 44.3335 12.2274L43.4488 11.3431C43.1434 11.0377 42.6485 11.0377 42.3431 11.3431C42.0377 11.6481 42.0377 12.1434 42.3431 12.4485L43.2277 13.3331C43.5331 13.6389 44.0281 13.6389 44.3335 13.3331Z" fill="white"/>
<defs>
<filter id="filter0_b_56_444" x="-16" y="-16" width="66" height="66" filterUnits="userSpaceOnUse" color-interpolation-filters="sRGB">
<feFlood flood-opacity="0" result="BackgroundImageFix"/>
<feGaussianBlur in="BackgroundImageFix" stdDeviation="10"/>
<feComposite in2="SourceAlpha" operator="in" result="effect1_backgroundBlur_56_444"/>
<feBlend mode="normal" in="SourceGraphic" in2="effect1_backgroundBlur_56_444" result="shape"/>
</filter>
</defs>
</svg>
